<svg width="64" height="64" viewBox="0 0 64 64" fill="none" xmlns="http://www.w3.org/2000/svg"><style xmlns="http://www.w3.org/1999/xhtml">
                  @keyframes animation-element-1 {
                    0% { transform: rotate(0deg); }
                    50% { transform: rotate(360deg); }
                    100% { transform: rotate(0deg); }
                  }
                

                  @keyframes animation-element-2 {
                    0% { transform: translate(0px, 0px); }
                    25% { transform: translate(1px, 0px); }
                    50% { transform: translate(2px, 0px); }
                    75% { transform: translate(1px, 0px); }
                    100% { transform: translate(0px, 0px); }
                  }
                

                  @keyframes animation-element-3 {
                    0% { transform: scale(1); }
                    50% { transform: scale(1.1); }
                    100% { transform: scale(1); }
                  }
                

                  @keyframes animation-element-4 {
                    0% { transform: translate(0px, 0px); }
                    25% { transform: translate(0px, 1.5px); }
                    50% { transform: translate(0px, 3px); }
                    75% { transform: translate(0px, 1.5px); }
                    100% { transform: translate(0px, 0px); }
                  }
                </style>
<g clip-path="url(#clip0_713_6)" id="element-0" class="svg-element">
<path d="M27.0698 8.01367C29.5192 5.56422 33.4914 5.56422 35.9409 8.01367C38.1756 10.2485 38.3698 13.7493 36.5268 16.2061V19.3848L38.7729 17.1377C39.2065 14.0968 41.821 11.7588 44.9819 11.7588C48.4457 11.759 51.2534 14.5675 51.2534 18.0312C51.2532 21.1919 48.9152 23.8047 45.8745 24.2383L43.6274 26.4863H46.8041C49.261 24.642 52.7632 24.8362 54.9985 27.0713C57.4479 29.5207 57.4479 33.4929 54.9985 35.9424C52.7632 38.1776 49.261 38.3718 46.8041 36.5273H43.6274L45.8745 38.7744C48.9153 39.2079 51.2532 41.8218 51.2534 44.9824C51.2534 48.4462 48.4457 51.2546 44.9819 51.2549C41.8207 51.2549 39.2061 48.9164 38.7729 45.875L36.5268 43.6289V46.8066C38.3703 49.2635 38.1757 52.765 35.9409 55C33.4914 57.4495 29.5192 57.4495 27.0698 55C24.8347 52.7647 24.6405 49.2625 26.4848 46.8057V43.6279L24.2368 45.876C23.8031 48.9167 21.1904 51.2547 18.0297 51.2549C14.5657 51.2549 11.7573 48.4464 11.7573 44.9824C11.7575 41.8218 14.0954 39.208 17.1362 38.7744L19.3842 36.5273H16.2065C13.7496 38.3717 10.2474 38.1776 8.01215 35.9424C5.56269 33.4929 5.56269 29.5207 8.01215 27.0713C10.2474 24.8362 13.7495 24.642 16.2065 26.4863H19.3842L17.1362 24.2383C14.0955 23.8046 11.7575 21.1919 11.7573 18.0312C11.7573 14.5672 14.5657 11.7588 18.0297 11.7588C21.1901 11.7589 23.8027 14.0964 24.2368 17.1367L26.4848 19.3848V16.207C24.641 13.7502 24.8348 10.2488 27.0698 8.01367Z" fill="#FFB13B" stroke="black" stroke-width="4" id="element-1" class="svg-element" style="animation: 2s ease 0s infinite normal none running animation-element-1; transform-origin: center center;"/>
<path d="M10.409 35.4091C12.15 35.4091 13.7772 35.7217 15.2469 36.3993L15.2459 36.4003C16.6786 37.0532 17.8799 37.9799 18.784 39.202H18.785C19.7237 40.4606 20.2205 41.9067 20.2713 43.4813L20.3387 45.5458H13.7684L13.5594 43.7802C13.4925 43.2158 13.2646 42.8482 12.7889 42.536C12.2093 42.1557 11.4219 41.9091 10.3182 41.9091C9.50399 41.9091 8.8834 42.0393 8.41095 42.2421L8.41193 42.243C7.92221 42.4565 7.62229 42.7095 7.42853 42.9696C7.26513 43.1978 7.18152 43.444 7.18146 43.7723C7.18146 44.0469 7.2396 44.1838 7.28497 44.2577C7.42607 44.4571 7.60855 44.6319 7.8504 44.7841C8.20011 44.9966 8.56472 45.1727 8.94611 45.3134C9.17632 45.3944 9.39354 45.4672 9.59845 45.5311L10.1912 45.702L10.202 45.705L12.5526 46.3378C13.2407 46.5184 13.9831 46.7618 14.7742 47.0604H14.7733C15.6836 47.4011 16.5438 47.8623 17.3533 48.4354H17.3543C17.3556 48.4364 17.3569 48.4374 17.3582 48.4384C17.3637 48.4422 17.3693 48.4462 17.3748 48.4501H17.3738C18.2991 49.095 19.0554 49.918 19.6385 50.8964C20.3108 52.0244 20.5906 53.3194 20.5906 54.6815C20.5906 56.3096 20.158 57.8272 19.2801 59.1796L19.2791 59.1786C18.3968 60.5497 17.1366 61.5852 15.5984 62.3173C14.0133 63.0753 12.183 63.4091 10.1815 63.4091C8.30463 63.409 6.57463 63.1066 5.04572 62.4325L5.04083 62.4305C3.54459 61.7666 2.29622 60.8053 1.36896 59.5253L1.3631 59.5175C0.441823 58.2317 -0.0618537 56.7537 -0.176941 55.1425L-0.330261 52.9999H6.56232L6.71954 54.828C6.76283 55.3302 6.91257 55.6289 7.09454 55.8368C7.37183 56.1351 7.73753 56.3819 8.24005 56.5614C8.81665 56.7565 9.45884 56.8631 10.1815 56.8632C11.0385 56.8632 11.7412 56.7245 12.3211 56.4891C12.9028 56.2456 13.2844 55.9476 13.5418 55.6268C13.7503 55.3611 13.864 55.0596 13.8641 54.6366C13.8641 54.256 13.7681 54.1312 13.7225 54.08C13.5173 53.8497 13.2054 53.6133 12.7215 53.4052C12.1081 53.1413 11.4325 52.9057 10.6922 52.7001L10.6854 52.6981L10.6776 52.6962L7.81427 51.8778L7.81134 51.8768C5.78685 51.2948 4.04466 50.4251 2.69611 49.1923C1.18065 47.8067 0.454895 45.9815 0.454895 43.9091C0.454895 42.2225 0.918678 40.6656 1.89337 39.3241L1.89532 39.3221C2.82829 38.0419 4.06593 37.0739 5.54962 36.4061C7.04351 35.7296 8.67473 35.4091 10.409 35.4091Z" fill="#00FFA3" stroke="black" stroke-width="4" id="element-2" class="svg-element selected-element" style="transform-origin: center center; animation: 2s ease 0s infinite normal forwards running animation-element-2;"/>
<path d="M25.1883 35.7273L25.659 37.0623L30.8182 51.6902L35.9774 37.0623L36.4481 35.7273H43.6834L42.6951 38.4167L34.1502 61.6892L33.6688 62.9998H27.9676L27.4861 61.6892L18.9412 38.4167L17.9529 35.7273H25.1883Z" fill="#00FFA3" stroke="black" stroke-width="4" id="element-3" class="svg-element" style="animation: 2s cubic-bezier(0.68, -0.55, 0.265, 1.55) 0s infinite normal forwards running animation-element-3; transform-origin: center center;"/>
<path d="M52.0908 35.4091C53.516 35.4091 54.8793 35.6251 56.166 36.0731L56.1669 36.0721C56.1708 36.0735 56.1748 36.0757 56.1786 36.077C56.1802 36.0776 56.182 36.0775 56.1835 36.078L56.1826 36.079C57.4554 36.5142 58.6112 37.1412 59.6328 37.9677H59.6318C60.6567 38.783 61.512 39.7604 62.1913 40.8895H62.1904C62.8812 42.0302 63.3482 43.283 63.6015 44.6307L64.0468 46.9999H57.2763L56.8261 45.621C56.628 45.0148 56.3763 44.4999 56.081 44.0624L56.0732 44.0507L56.0654 44.038C55.782 43.6049 55.4518 43.2501 55.0751 42.9598L55.0644 42.951C54.7063 42.6715 54.2885 42.4492 53.7949 42.2899C53.3136 42.1347 52.751 42.0458 52.0908 42.0458C51.0766 42.0458 50.1948 42.3019 49.3964 42.8055C48.6316 43.2881 47.9676 44.0274 47.4384 45.1278C46.9356 46.1733 46.6367 47.5591 46.6367 49.3632C46.6367 51.1644 46.9389 52.5473 47.4462 53.5907C47.9784 54.6849 48.6519 55.4266 49.4384 55.913C50.2535 56.417 51.1804 56.6815 52.2724 56.6815C53.3142 56.6815 54.1429 56.4619 54.8183 56.0839C55.5066 55.6954 56.0343 55.1608 56.4247 54.4423L56.4267 54.4384C56.5247 54.259 56.6136 54.0677 56.6904 53.8632H50.9091V47.3632H63.7724V51.8632C63.7724 54.0674 63.2994 56.0886 62.2802 57.8563L62.2812 57.8573C61.2868 59.595 59.8959 60.9573 58.1386 61.9149L58.1357 61.9169C56.3796 62.8696 54.4066 63.3182 52.2724 63.3182C49.8855 63.3182 47.6999 62.7521 45.7851 61.5624L45.7822 61.5604C43.8835 60.3749 42.4271 58.6984 41.4062 56.6034L41.4033 56.5975C40.3813 54.482 39.9091 52.0494 39.9091 49.3632C39.9092 47.346 40.1785 45.4712 40.7509 43.7626L40.7529 43.7567C41.3262 42.0629 42.1535 40.5672 43.2568 39.3075C44.3538 38.0551 45.6648 37.0836 47.1757 36.411C48.698 35.7335 50.3459 35.4091 52.0908 35.4091Z" fill="#00FFA3" stroke="black" stroke-width="4" id="element-4" class="svg-element" style="transform-origin: center center; animation: 2s cubic-bezier(0.68, -0.55, 0.265, 1.55) 0s infinite normal forwards running animation-element-4;"/>
</g>
<defs id="element-5" class="svg-element">
<clipPath id="clip0_713_6" class="svg-element">
<rect width="64" height="64" fill="white" id="element-7" class="svg-element"/>
</clipPath>
</defs>
</svg>